<svg viewBox="0 0 101.36 25.04">
<g>
	<path fill="#050505" d="M101.03,13.74c-11.35,6.47-20.78,8.95-28.34,9.14l0,0c-7.56,0.19-13.24-1.92-16.99-4.58l0,0
		c-0.44-0.31-0.85-0.63-1.24-0.95l0,0c-8.14,3.03-16.64,3.16-24.5,1.56l0,0c-7.9-1.62-15.14-4.99-20.79-9l0,0
		C5.31,7.17,2.2,4.13,0.14,1.13l0,0l0,0C-0.11,0.77-0.02,0.31,0.33,0.1l0,0c0.35-0.21,0.84-0.08,1.09,0.28l0,0
		c1.9,2.78,4.87,5.7,8.59,8.34l0,0c5.44,3.86,12.49,7.14,20.13,8.71l0,0c7.41,1.52,15.36,1.43,23.02-1.27l0,0
		c-0.82-0.84-1.46-1.69-1.95-2.5l0,0c-0.89-1.53-1.26-2.98-0.82-4.14l0,0c0.11-0.27,0.24-0.52,0.39-0.73l0,0
		c0.4-0.59,1.05-0.94,1.72-0.93l0,0c0.68,0,1.3,0.28,1.86,0.67l0,0c0.8,0.57,1.49,1.4,2,2.35l0,0c0.51,0.95,0.84,2.01,0.82,3.07l0,0
		c-0.02,0.7-0.21,1.39-0.63,1.99l0,0c-0.18,0.26-0.41,0.5-0.68,0.7l0,0c0.21,0.16,0.43,0.33,0.66,0.49l0,0
		c3.43,2.43,8.71,4.44,15.96,4.26l0,0c7.25-0.18,16.45-2.56,27.65-8.95l0,0c0.36-0.2,0.84-0.07,1.09,0.29l0,0
		c0.18,0.27,0.18,0.6,0.01,0.83l0,0C101.19,13.62,101.11,13.69,101.03,13.74L101.03,13.74z M55.24,14.98
		c0.25-0.35,0.37-0.77,0.38-1.24l0,0c0.01-0.47-0.09-1-0.28-1.52l0,0c-0.38-1.04-1.14-2.05-1.82-2.52l0,0
		c-0.36-0.25-0.66-0.35-0.85-0.35l0,0c-0.19,0.01-0.34,0.05-0.57,0.36l0,0c-0.08,0.11-0.16,0.26-0.23,0.45l0,0
		c-0.21,0.47-0.07,1.55,0.7,2.84l0,0c0.47,0.8,1.16,1.68,2.07,2.55l0,0C54.9,15.38,55.09,15.19,55.24,14.98L55.24,14.98z"/>
	<path fill="#050505" d="M95.96,24.97c-0.41-0.18-0.62-0.63-0.47-1.01l0,0l3.99-10.28l-11.4-1.55l0,0c-0.43-0.06-0.76-0.44-0.74-0.85
		l0,0c0.02-0.41,0.38-0.7,0.82-0.64l0,0l12.46,1.69c0.25,0.03,0.48,0.18,0.61,0.39l0,0c0.14,0.21,0.17,0.46,0.08,0.68l0,0
		l-4.36,11.21c-0.02,0.05-0.05,0.1-0.08,0.14l0,0C96.69,25.02,96.31,25.12,95.96,24.97L95.96,24.97z"/>
</g>
</svg>
