<svg viewBox="0 0 153.96 86.1">
<g>
	<path d="M83.31,9.99c0.54-0.3,1.13-0.65,1.77-1.05c0.64-0.4,1.25-0.78,1.83-1.14c0.58-0.36,0.95-0.58,1.11-0.66
		c0.84-0.48,1.84-0.94,3-1.38c1.16-0.44,2.1-0.7,2.82-0.78c0.56,0.84,0.71,1.39,0.45,1.65c-0.26,0.26-0.85,0.49-1.77,0.69
		c-0.8,0.16-1.46,0.37-1.98,0.63c-0.52,0.26-1.08,0.55-1.68,0.87c-1.2,0.56-2.33,1.19-3.39,1.89c-1.06,0.7-1.99,1.29-2.79,1.77
		c-0.08,0.04-0.24,0.17-0.48,0.39c-0.24,0.22-0.53,0.46-0.87,0.72c-0.34,0.26-0.68,0.5-1.02,0.72c-0.34,0.22-0.63,0.33-0.87,0.33
		L79.56,15c-0.64,0.12-0.84,0.36-0.6,0.72c-0.28,0.04-0.68,0.27-1.2,0.69c-0.52,0.42-1.04,0.89-1.56,1.41
		c-0.52,0.52-0.97,1.01-1.35,1.47c-0.38,0.46-0.53,0.77-0.45,0.93c-0.24,0.04-0.7,0.44-1.38,1.2c-0.68,0.76-1.47,1.71-2.37,2.85
		s-1.85,2.38-2.85,3.72c-1,1.34-1.97,2.63-2.91,3.87c-0.94,1.24-1.78,2.34-2.52,3.3c-0.74,0.96-1.29,1.62-1.65,1.98
		c-0.56,0.56-1.16,1.27-1.8,2.13c-0.64,0.86-1.24,1.61-1.8,2.25c-0.6,0.68-1.28,1.4-2.04,2.16c-0.76,0.76-1.48,1.44-2.16,2.04
		c-0.48,0.36-1.14,0.86-1.98,1.5c-0.84,0.64-1.73,1.26-2.67,1.86c-0.94,0.6-1.85,1.11-2.73,1.53c-0.88,0.42-1.58,0.61-2.1,0.57
		l-1.8-0.3c-0.08-0.16-0.2-0.29-0.36-0.39c-0.16-0.1-0.34-0.23-0.54-0.39c-0.2-0.16-0.41-0.38-0.63-0.66
		c-0.22-0.28-0.39-0.68-0.51-1.2c-0.16-0.56-0.19-1-0.09-1.32c0.1-0.32,0.21-0.9,0.33-1.74c0.04-0.24,0.1-0.64,0.18-1.2
		c0.08-0.56,0.2-1.15,0.36-1.77c0.16-0.62,0.36-1.2,0.6-1.74c0.24-0.54,0.52-0.93,0.84-1.17l-0.3-0.78c0.2-0.04,0.44-0.26,0.72-0.66
		c0.28-0.4,0.56-0.86,0.84-1.38c0.28-0.52,0.55-1.02,0.81-1.5c0.26-0.48,0.45-0.82,0.57-1.02c0.16-0.28,0.38-0.65,0.66-1.11
		c0.28-0.46,0.55-0.9,0.81-1.32c0.26-0.42,0.52-0.81,0.78-1.17c0.26-0.36,0.47-0.6,0.63-0.72l-0.18-0.6
		c-0.12,0.36-0.39,0.72-0.81,1.08c-0.42,0.36-0.84,0.73-1.26,1.11c-0.42,0.38-0.78,0.74-1.08,1.08c-0.3,0.34-0.39,0.65-0.27,0.93
		l-1.26,0.72c0.04,0.12-0.06,0.33-0.3,0.63c-0.24,0.3-0.54,0.62-0.9,0.96c-0.36,0.34-0.72,0.65-1.08,0.93
		c-0.36,0.28-0.64,0.44-0.84,0.48c0.12,0.2,0.13,0.36,0.03,0.48c-0.1,0.12-0.37,0.18-0.81,0.18c0.08,0.16,0.02,0.4-0.18,0.72
		c-0.2,0.32-0.46,0.64-0.78,0.96c-0.32,0.32-0.66,0.62-1.02,0.9c-0.36,0.28-0.66,0.44-0.9,0.48l0.18,0.3
		c-0.76,0-1.02,0.26-0.78,0.78c-0.32,0-0.64,0.13-0.96,0.39c-0.32,0.26-0.64,0.57-0.96,0.93c-0.32,0.36-0.64,0.71-0.96,1.05
		c-0.32,0.34-0.62,0.61-0.9,0.81c-0.44,0.32-0.78,0.59-1.02,0.81c-0.24,0.22-0.56,0.47-0.96,0.75c-0.32,0.32-0.62,0.54-0.9,0.66
		c-0.28,0.12-0.6,0.36-0.96,0.72c-0.4,0.4-1.06,0.86-1.98,1.38c-0.92,0.52-1.85,0.9-2.79,1.14c-0.94,0.24-1.77,0.25-2.49,0.03
		c-0.72-0.22-1.08-0.89-1.08-2.01v-0.36c0-0.96,0.16-1.88,0.48-2.76c0.32-0.88,0.48-1.48,0.48-1.8v-0.48
		c0.16-0.04,0.33-0.21,0.51-0.51c0.18-0.3,0.34-0.63,0.48-0.99c0.14-0.36,0.28-0.7,0.42-1.02c0.14-0.32,0.25-0.52,0.33-0.6
		c0.36-0.44,0.69-0.95,0.99-1.53c0.3-0.58,0.61-1.09,0.93-1.53c0.24-0.36,0.45-0.67,0.63-0.93c0.18-0.26,0.34-0.51,0.48-0.75
		c0.14-0.24,0.3-0.49,0.48-0.75c0.18-0.26,0.41-0.57,0.69-0.93c0.32-0.44,0.62-0.94,0.9-1.5c0.28-0.56,0.7-1.1,1.26-1.62
		c0.16-0.2,0.33-0.46,0.51-0.78c0.18-0.32,0.38-0.66,0.6-1.02c0.22-0.36,0.43-0.7,0.63-1.02c0.2-0.32,0.4-0.6,0.6-0.84
		c0.56-0.56,1-1.1,1.32-1.62c0.32-0.52,0.66-1,1.02-1.44c0.16-0.16,0.49-0.54,0.99-1.14c0.5-0.6,1.02-1.24,1.56-1.92
		c0.54-0.68,1.02-1.32,1.44-1.92c0.42-0.6,0.65-1,0.69-1.2C37.32,17.5,36.9,17.68,36.3,18c-0.6,0.32-1.26,0.68-1.98,1.08
		c-0.72,0.4-1.4,0.79-2.04,1.17c-0.64,0.38-1.1,0.65-1.38,0.81c-0.52,0.4-1.03,0.7-1.53,0.9c-0.5,0.2-0.99,0.4-1.47,0.6
		c-0.36,0.2-0.86,0.41-1.5,0.63c-0.64,0.22-1.06,0.49-1.26,0.81c-0.44,0-0.92,0.1-1.44,0.3c-0.52,0.2-1.04,0.42-1.56,0.66
		c-0.52,0.24-1.02,0.47-1.5,0.69c-0.48,0.22-0.9,0.35-1.26,0.39c-0.8,0.16-1.37,0.33-1.71,0.51c-0.34,0.18-0.77,0.29-1.29,0.33
		c-0.32,0.08-0.71,0.15-1.17,0.21c-0.46,0.06-0.89,0.17-1.29,0.33c-0.8,0.16-1.77,0.3-2.91,0.42c-1.14,0.12-2.09,0.1-2.85-0.06
		c-0.28-0.04-0.77-0.06-1.47-0.06c-0.7,0-1.35-0.08-1.95-0.24c-0.56-0.2-1.06-0.39-1.5-0.57c-0.44-0.18-0.88-0.31-1.32-0.39
		l0.24-0.48c-0.76,0-1.02-0.2-0.78-0.6H0.9L0.48,23.7H0.9v-0.36h0.48c0.12,0,0.35,0.09,0.69,0.27c0.34,0.18,0.69,0.39,1.05,0.63
		c0.36,0.24,0.68,0.46,0.96,0.66c0.28,0.2,0.44,0.32,0.48,0.36c0.16-0.08,0.4-0.09,0.72-0.03c0.32,0.06,0.67,0.15,1.05,0.27
		c0.38,0.12,0.75,0.23,1.11,0.33c0.36,0.1,0.64,0.15,0.84,0.15h0.18c3.6,0,6.82-0.35,9.66-1.05c2.84-0.7,5.64-1.67,8.4-2.91
		c0.68-0.36,1.3-0.67,1.86-0.93c0.56-0.26,1.24-0.55,2.04-0.87c0.8-0.36,1.52-0.73,2.16-1.11c0.64-0.38,1.24-0.69,1.8-0.93
		c0.76-0.44,1.44-0.86,2.04-1.26c0.6-0.4,1.26-0.8,1.98-1.2c0.16-0.12,0.43-0.32,0.81-0.6c0.38-0.28,0.76-0.57,1.14-0.87
		c0.38-0.3,0.72-0.57,1.02-0.81c0.3-0.24,0.49-0.36,0.57-0.36c0.12,0,0.26,0.05,0.42,0.15c0.16,0.1,0.28,0.19,0.36,0.27l0.18,0.12
		l-5.64,7.14l0.06,0.12c-0.2,0.04-0.47,0.26-0.81,0.66c-0.34,0.4-0.69,0.85-1.05,1.35c-0.36,0.5-0.7,1-1.02,1.5
		c-0.32,0.5-0.56,0.85-0.72,1.05c-0.12,0.16-0.38,0.47-0.78,0.93c-0.4,0.46-0.8,0.96-1.2,1.5c-0.4,0.54-0.75,1.04-1.05,1.5
		c-0.3,0.46-0.41,0.75-0.33,0.87h-0.54c0.04,0.16-0.17,0.61-0.63,1.35c-0.46,0.74-1,1.56-1.62,2.46c-0.62,0.9-1.22,1.77-1.8,2.61
		c-0.58,0.84-0.95,1.4-1.11,1.68c-0.24,0.4-0.43,0.71-0.57,0.93c-0.14,0.22-0.37,0.59-0.69,1.11c-0.24,0.4-0.45,0.7-0.63,0.9
		c-0.18,0.2-0.37,0.52-0.57,0.96c-0.12,0.2-0.29,0.52-0.51,0.96c-0.22,0.44-0.43,0.91-0.63,1.41c-0.2,0.5-0.38,0.96-0.54,1.38
		c-0.16,0.42-0.24,0.69-0.24,0.81v0.06v1.38c0,0.08,0.12,0.3,0.36,0.66c0.24,0.36,0.44,0.64,0.6,0.84c0.44-0.2,0.81-0.33,1.11-0.39
		c0.3-0.06,0.61-0.19,0.93-0.39c0.36-0.2,0.69-0.37,0.99-0.51c0.3-0.14,0.63-0.31,0.99-0.51c0.88-0.4,1.53-0.79,1.95-1.17
		c0.42-0.38,0.95-0.73,1.59-1.05c0.28-0.2,0.49-0.36,0.63-0.48c0.14-0.12,0.25-0.23,0.33-0.33c0.08-0.1,0.16-0.2,0.24-0.3
		c0.08-0.1,0.22-0.25,0.42-0.45c0.24-0.16,0.45-0.25,0.63-0.27c0.18-0.02,0.49-0.29,0.93-0.81c0.12-0.12,0.33-0.33,0.63-0.63
		c0.3-0.3,0.62-0.6,0.96-0.9c0.34-0.3,0.65-0.57,0.93-0.81c0.28-0.24,0.48-0.36,0.6-0.36l-0.24-0.3c0.48-0.04,1.14-0.48,1.98-1.32
		c0.84-0.84,1.72-1.77,2.64-2.79c0.92-1.02,1.77-1.95,2.55-2.79c0.78-0.84,1.35-1.28,1.71-1.32c-0.08-0.16,0.08-0.47,0.48-0.93
		c0.4-0.46,0.86-0.95,1.38-1.47c0.52-0.52,1.02-1.02,1.5-1.5s0.76-0.84,0.84-1.08c0.2-0.32,0.5-0.7,0.9-1.14
		c0.4-0.44,0.82-0.88,1.26-1.32c0.44-0.44,0.86-0.89,1.26-1.35c0.4-0.46,0.7-0.87,0.9-1.23c0.04-0.08,0.28-0.38,0.72-0.9
		c0.44-0.52,0.91-1.08,1.41-1.68c0.5-0.6,0.97-1.17,1.41-1.71c0.44-0.54,0.7-0.87,0.78-0.99c0.52-0.44,0.88-0.8,1.08-1.08
		c0.2-0.28,0.54-0.7,1.02-1.26c0.32-0.36,0.56-0.63,0.72-0.81c0.16-0.18,0.31-0.3,0.45-0.36c0.14-0.06,0.3-0.06,0.48,0
		c0.18,0.06,0.45,0.15,0.81,0.27c-0.2,0.36-0.34,0.63-0.42,0.81c-0.08,0.18-0.16,0.33-0.24,0.45c-0.08,0.12-0.18,0.26-0.3,0.42
		c-0.12,0.16-0.3,0.4-0.54,0.72c-0.08,0.2-0.22,0.4-0.42,0.6c-0.2,0.2-0.39,0.39-0.57,0.57c-0.18,0.18-0.34,0.36-0.48,0.54
		c-0.14,0.18-0.17,0.35-0.09,0.51l-0.78,0.48c0.04,0.08-0.05,0.28-0.27,0.6c-0.22,0.32-0.47,0.68-0.75,1.08
		c-0.28,0.4-0.55,0.77-0.81,1.11c-0.26,0.34-0.43,0.55-0.51,0.63c-0.56,0.56-0.99,1.11-1.29,1.65c-0.3,0.54-0.77,1.09-1.41,1.65
		c-0.2,0.2-0.55,0.66-1.05,1.38c-0.5,0.72-1.02,1.47-1.56,2.25s-1.01,1.5-1.41,2.16c-0.4,0.66-0.58,1.05-0.54,1.17h-0.54
		c0.04,0.12-0.11,0.48-0.45,1.08c-0.34,0.6-0.74,1.28-1.2,2.04c-0.46,0.76-0.91,1.51-1.35,2.25c-0.44,0.74-0.74,1.31-0.9,1.71
		c-0.12,0.36-0.33,0.84-0.63,1.44c-0.3,0.6-0.59,1.24-0.87,1.92c-0.28,0.68-0.53,1.39-0.75,2.13c-0.22,0.74-0.33,1.45-0.33,2.13
		v2.16l0.96,0.06c0.16,0,0.39,0.04,0.69,0.12c0.3,0.08,0.61,0.16,0.93,0.24c0.32,0.08,0.65,0.16,0.99,0.24
		c0.34,0.08,0.65,0.08,0.93,0c0.64-0.2,1.26-0.48,1.86-0.84c0.6-0.36,1.16-0.66,1.68-0.9V47.4c0.16,0,0.46-0.15,0.9-0.45
		c0.44-0.3,0.94-0.66,1.5-1.08c0.56-0.42,1.14-0.9,1.74-1.44s1.16-1.06,1.68-1.56c0.52-0.5,0.94-0.94,1.26-1.32
		c0.32-0.38,0.5-0.67,0.54-0.87c0.12,0,0.27-0.09,0.45-0.27c0.18-0.18,0.36-0.4,0.54-0.66c0.18-0.26,0.34-0.51,0.48-0.75
		c0.14-0.24,0.19-0.4,0.15-0.48c0.24,0,0.57-0.21,0.99-0.63c0.42-0.42,0.83-0.9,1.23-1.44c0.4-0.54,0.77-1.07,1.11-1.59
		c0.34-0.52,0.57-0.88,0.69-1.08c0.4-0.32,0.67-0.52,0.81-0.6c0.14-0.08,0.31-0.34,0.51-0.78c0.12-0.28,0.26-0.51,0.42-0.69
		c0.16-0.18,0.34-0.45,0.54-0.81c0.08-0.12,0.24-0.3,0.48-0.54c0.24-0.24,0.48-0.49,0.72-0.75c0.24-0.26,0.44-0.52,0.6-0.78
		c0.16-0.26,0.2-0.47,0.12-0.63h0.42l0.66-1.32c0.4-0.12,0.67-0.33,0.81-0.63c0.14-0.3,0.35-0.67,0.63-1.11
		c0.2-0.32,0.45-0.62,0.75-0.9c0.3-0.28,0.55-0.58,0.75-0.9l1.26-1.62l-0.12-0.24c0.16-0.04,0.48-0.3,0.96-0.78s0.99-1.03,1.53-1.65
		c0.54-0.62,1.07-1.23,1.59-1.83c0.52-0.6,0.92-1.04,1.2-1.32c0.28-0.24,0.7-0.64,1.26-1.2c0.56-0.56,1.16-1.13,1.8-1.71
		c0.64-0.58,1.24-1.09,1.8-1.53c0.56-0.44,0.96-0.68,1.2-0.72l-0.24-0.3C82.48,10.44,82.77,10.29,83.31,9.99z"/>
	<path d="M66.24,48.54c-0.92,0.64-1.9,1.19-2.94,1.65c-1.04,0.46-2.06,0.69-3.06,0.69c-0.6,0.44-1.21,0.49-1.83,0.15
		c-0.62-0.34-1.15-0.85-1.59-1.53h-0.06l-0.06-1.98c0.04,0,0.06-0.01,0.06-0.03c0-0.02,0.02-0.03,0.06-0.03
		c0.2-0.44,0.36-0.79,0.48-1.05c0.12-0.26,0.25-0.5,0.39-0.72c0.14-0.22,0.31-0.46,0.51-0.72c0.2-0.26,0.52-0.61,0.96-1.05
		c0.2-0.2,0.48-0.44,0.84-0.72c0.36-0.28,0.74-0.54,1.14-0.78c0.4-0.24,0.81-0.45,1.23-0.63s0.81-0.27,1.17-0.27
		c0.44,0,0.77,0.08,0.99,0.24c0.22,0.16,0.49,0.28,0.81,0.36c-0.08,0.4-0.24,0.82-0.48,1.26c-0.24,0.44-0.53,0.85-0.87,1.23
		c-0.34,0.38-0.71,0.7-1.11,0.96c-0.4,0.26-0.8,0.41-1.2,0.45l0.24,0.36c-0.56,0.08-0.96,0.24-1.2,0.48
		c-0.24,0.24-0.56,0.48-0.96,0.72c-0.4,0.24-0.65,0.39-0.75,0.45c-0.1,0.06-0.14,0.12-0.12,0.18c0.02,0.06,0.05,0.14,0.09,0.24
		c0.04,0.1,0,0.31-0.12,0.63c0.2,0.08,0.42,0.18,0.66,0.3c0.24,0.12,0.42,0.18,0.54,0.18l2.04-0.3l0.42-0.6
		c0.44,0,0.99-0.15,1.65-0.45c0.66-0.3,1.33-0.67,2.01-1.11L66.24,48.54z M59.64,46.26c0.16-0.12,0.44-0.31,0.84-0.57
		c0.4-0.26,0.81-0.55,1.23-0.87c0.42-0.32,0.8-0.62,1.14-0.9c0.34-0.28,0.51-0.48,0.51-0.6c0-0.2,0-0.32,0-0.36
		c0-0.04,0-0.05,0-0.03c0,0.02-0.02,0.02-0.06,0c-0.04-0.02-0.1-0.09-0.18-0.21c-0.28,0.2-0.61,0.41-0.99,0.63
		c-0.38,0.22-0.75,0.48-1.11,0.78c-0.36,0.3-0.67,0.62-0.93,0.96C59.83,45.43,59.68,45.82,59.64,46.26z"/>
	<path d="M65.58,48.6c0.2-0.08,0.38-0.16,0.54-0.24c0.16-0.08,0.34-0.16,0.54-0.24c1.04-0.48,2.09-0.95,3.15-1.41
		c1.06-0.46,2.13-1.05,3.21-1.77c0.4-0.28,0.68-0.51,0.84-0.69c0.16-0.18,0.25-0.37,0.27-0.57c0.02-0.2,0.03-0.44,0.03-0.72
		c0-0.28,0.06-0.64,0.18-1.08c0.2-0.68,0.37-1.24,0.51-1.68c0.14-0.44,0.31-0.94,0.51-1.5c0.36-1,0.84-2,1.44-3
		c0.6-1,1.12-2.02,1.56-3.06c0.2-0.44,0.51-0.92,0.93-1.44c0.42-0.52,0.73-0.96,0.93-1.32c0.16-0.28,0.44-0.73,0.84-1.35
		c0.4-0.62,0.76-1.11,1.08-1.47c0.92-1.04,1.76-1.96,2.52-2.76c0.76-0.8,1.6-1.68,2.52-2.64c0.92-0.92,1.86-1.73,2.82-2.43
		c0.96-0.7,1.88-1.49,2.76-2.37c0.52-0.28,0.94-0.51,1.26-0.69c0.32-0.18,0.63-0.35,0.93-0.51c0.3-0.16,0.53-0.28,0.69-0.36
		c0.56-0.28,1.16-0.51,1.8-0.69c0.64-0.18,1.16-0.43,1.56-0.75c0.72,0.48,1.21,0.85,1.47,1.11c0.26,0.26,0.38,0.51,0.36,0.75
		c-0.02,0.24-0.13,0.52-0.33,0.84c-0.2,0.32-0.4,0.8-0.6,1.44c-0.44,1.56-1.16,2.9-2.16,4.02c-0.48,0.64-0.98,1.34-1.5,2.1
		c-0.52,0.76-1.02,1.48-1.5,2.16c-0.16,0.2-0.39,0.48-0.69,0.84c-0.3,0.36-0.61,0.73-0.93,1.11c-0.32,0.38-0.63,0.74-0.93,1.08
		c-0.3,0.34-0.51,0.57-0.63,0.69c-0.68,0.64-1.29,1.26-1.83,1.86s-1.08,1.2-1.62,1.8c-0.54,0.6-1.12,1.2-1.74,1.8
		c-0.62,0.6-1.31,1.22-2.07,1.86c-0.32,0.28-0.86,0.76-1.62,1.44c-0.76,0.68-1.58,1.37-2.46,2.07c-0.88,0.7-1.7,1.33-2.46,1.89
		c-0.76,0.56-1.3,0.86-1.62,0.9c-0.12,0.4-0.22,0.73-0.3,0.99c-0.08,0.26-0.13,0.5-0.15,0.72c-0.02,0.22-0.02,0.45,0,0.69
		c0.02,0.24,0.09,0.54,0.21,0.9c0.16,0.52,0.32,0.92,0.48,1.2c0.16,0.28,0.34,0.5,0.54,0.66c0.2,0.16,0.42,0.29,0.66,0.39
		c0.24,0.1,0.5,0.25,0.78,0.45c1.68,0,3.16-0.24,4.44-0.72c1.28-0.48,2.56-1.1,3.84-1.86c0.56-0.32,1.02-0.57,1.38-0.75
		s0.76-0.41,1.2-0.69l0.42,1.02c-0.28,0.12-0.63,0.31-1.05,0.57c-0.42,0.26-0.84,0.52-1.26,0.78c-0.42,0.26-0.82,0.51-1.2,0.75
		c-0.38,0.24-0.69,0.4-0.93,0.48c-0.24,0.12-0.61,0.28-1.11,0.48c-0.5,0.2-1,0.4-1.5,0.6c-0.5,0.2-0.96,0.37-1.38,0.51
		C80.79,50.93,80.54,51,80.46,51c-0.32,0-0.68,0.01-1.08,0.03c-0.4,0.02-0.82,0.01-1.26-0.03c-0.44-0.04-0.88-0.15-1.32-0.33
		c-0.44-0.18-0.84-0.49-1.2-0.93c-0.28-0.36-0.52-0.77-0.72-1.23c-0.2-0.46-0.36-0.9-0.48-1.32c-0.12-0.42-0.22-0.78-0.3-1.08
		c-0.08-0.3-0.16-0.47-0.24-0.51l-6.06,3.66c-0.32,0-0.66,0.04-1.02,0.12c-0.36,0.08-0.72,0.18-1.08,0.3L65.58,48.6z M84,27
		c0.08,0.2,0.04,0.46-0.12,0.78c-0.16,0.32-0.37,0.64-0.63,0.96c-0.26,0.32-0.52,0.64-0.78,0.96c-0.26,0.32-0.47,0.58-0.63,0.78
		c-0.4,0.48-0.81,1.08-1.23,1.8c-0.42,0.72-0.83,1.36-1.23,1.92c-0.08,0.12-0.29,0.52-0.63,1.2c-0.34,0.68-0.69,1.45-1.05,2.31
		c-0.36,0.86-0.68,1.73-0.96,2.61c-0.28,0.88-0.42,1.58-0.42,2.1l2.94-1.92l-0.24-0.42c0.2,0,0.6-0.24,1.2-0.72
		c0.6-0.48,1.24-1.02,1.92-1.62c0.68-0.6,1.31-1.18,1.89-1.74c0.58-0.56,0.97-0.94,1.17-1.14c0.44-0.44,0.91-0.96,1.41-1.56
		c0.5-0.6,0.85-1,1.05-1.2c0.12-0.12,0.3-0.27,0.54-0.45c0.24-0.18,0.5-0.38,0.78-0.6c0.28-0.22,0.56-0.46,0.84-0.72
		c0.28-0.26,0.52-0.51,0.72-0.75c0.48-0.76,1.22-1.73,2.22-2.91c1-1.18,1.99-2.42,2.97-3.72c0.98-1.3,1.84-2.56,2.58-3.78
		c0.74-1.22,1.11-2.29,1.11-3.21c0-0.4-0.19-0.6-0.57-0.6c-0.38,0-0.81,0.09-1.29,0.27c-0.48,0.18-0.95,0.39-1.41,0.63
		c-0.46,0.24-0.77,0.4-0.93,0.48c-0.68,0.48-1.35,0.96-2.01,1.44s-1.29,1-1.89,1.56c-0.24,0.28-0.72,0.75-1.44,1.41
		c-0.72,0.66-1.46,1.35-2.22,2.07c-0.76,0.72-1.41,1.4-1.95,2.04c-0.54,0.64-0.75,1.08-0.63,1.32L84,27z"/>
	<path d="M99.18,47.04c-0.56,0.28-0.9,0.51-1.02,0.69s-0.38,0.37-0.78,0.57c-0.52,0.28-0.91,0.45-1.17,0.51
		c-0.26,0.06-0.59,0.17-0.99,0.33c-0.6,0.32-1.32,0.64-2.16,0.96c-0.84,0.32-1.72,0.48-2.64,0.48c-0.08,0.08-0.18,0.17-0.3,0.27
		C90,50.95,89.9,51,89.82,51c-0.36,0-0.84-0.15-1.44-0.45c-0.6-0.3-1.02-0.59-1.26-0.87c-0.32-0.36-0.52-0.76-0.6-1.2
		c-0.08-0.44-0.16-0.78-0.24-1.02l2.04-3.3v-0.12c0.24-0.16,0.49-0.33,0.75-0.51c0.26-0.18,0.51-0.35,0.75-0.51
		c0.28-0.2,0.74-0.43,1.38-0.69c0.64-0.26,1.29-0.46,1.95-0.6c0.66-0.14,1.25-0.15,1.77-0.03c0.52,0.12,0.78,0.44,0.78,0.96
		c0,0.44-0.15,0.81-0.45,1.11c-0.3,0.3-0.79,0.49-1.47,0.57l-0.36-0.96c-0.32,0.04-0.73,0.16-1.23,0.36
		c-0.5,0.2-0.98,0.43-1.44,0.69c-0.46,0.26-0.84,0.54-1.14,0.84c-0.3,0.3-0.41,0.57-0.33,0.81h-0.6c0.12,0.28,0.09,0.48-0.09,0.6
		c-0.18,0.12-0.27,0.34-0.27,0.66c0,0.96,0.41,1.48,1.23,1.56c0.82,0.08,1.77-0.05,2.85-0.39c1.08-0.34,2.14-0.75,3.18-1.23
		c1.04-0.48,1.8-0.8,2.28-0.96c0.44-0.2,0.83-0.39,1.17-0.57c0.34-0.18,0.73-0.35,1.17-0.51c0.04,0,0.06-0.01,0.06-0.03
		c0-0.02,0.02-0.03,0.06-0.03L99.18,47.04z"/>
	<path d="M99.3,48.78c0.6-0.28,1.28-0.61,2.04-0.99c0.76-0.38,1.3-0.63,1.62-0.75c0.2-0.04,0.72-0.28,1.56-0.72
		c0.84-0.44,1.74-0.94,2.7-1.5c0.96-0.56,1.83-1.12,2.61-1.68c0.78-0.56,1.23-1,1.35-1.32h1.32v0.42h0.42
		c-0.08,0.36-0.26,0.67-0.54,0.93c-0.28,0.26-0.58,0.51-0.9,0.75c-0.32,0.24-0.65,0.49-0.99,0.75c-0.34,0.26-0.63,0.53-0.87,0.81
		c-0.32,0.44-0.58,0.81-0.78,1.11c-0.2,0.3-0.37,0.59-0.51,0.87c-0.14,0.28-0.27,0.54-0.39,0.78c-0.12,0.24-0.26,0.5-0.42,0.78
		c0.16,0.28,0.28,0.48,0.36,0.6c0.08,0.12,0.16,0.19,0.24,0.21c0.08,0.02,0.2,0,0.36-0.06c0.16-0.06,0.42-0.13,0.78-0.21
		c0.2-0.04,0.53-0.2,0.99-0.48c0.46-0.28,0.83-0.54,1.11-0.78c0.48-0.44,1.01-1.07,1.59-1.89c0.58-0.82,0.87-1.57,0.87-2.25
		c0-0.28-0.09-0.66-0.27-1.14s-0.31-0.82-0.39-1.02c0.44-0.44,0.79-0.63,1.05-0.57c0.26,0.06,0.47,0.26,0.63,0.6
		c0.16,0.34,0.31,0.73,0.45,1.17c0.14,0.44,0.31,0.82,0.51,1.14l-0.9,1.44c-0.32,0.28-0.58,0.7-0.78,1.26
		c-0.2,0.56-0.6,1.06-1.2,1.5c-0.16,0.12-0.43,0.33-0.81,0.63c-0.38,0.3-0.78,0.6-1.2,0.9c-0.42,0.3-0.82,0.56-1.2,0.78
		c-0.38,0.22-0.69,0.33-0.93,0.33l-1.86-0.06l-1.32-1.74l1.62-3.54l-2.58,1.44l0.18,0.3l-5.1,2.46l-0.18-0.18l-0.12,0.48L99.3,48.78
		z"/>
	<path d="M116.4,47.28c0.84-0.4,1.58-0.78,2.22-1.14c0.36-0.24,0.82-0.54,1.38-0.9c0.56-0.36,1.12-0.7,1.68-1.02
		c0.48-0.24,0.83-0.45,1.05-0.63c0.22-0.18,0.44-0.32,0.66-0.42c0.22-0.1,0.46-0.17,0.72-0.21c0.26-0.04,0.65-0.04,1.17,0
		c-0.08,0.2-0.12,0.33-0.12,0.39s0.02,0.1,0.06,0.12c0.04,0.02,0.09,0.04,0.15,0.06c0.06,0.02,0.09,0.09,0.09,0.21
		c0,0.28-0.13,0.67-0.39,1.17c-0.26,0.5-0.55,1.03-0.87,1.59c-0.32,0.56-0.66,1.11-1.02,1.65c-0.36,0.54-0.62,0.99-0.78,1.35
		c0.36-0.04,1.01-0.32,1.95-0.84c0.94-0.52,1.93-1.11,2.97-1.77c1.04-0.66,2.02-1.29,2.94-1.89c0.92-0.6,1.56-1.02,1.92-1.26
		l0.72,0.18c0.08,0.12,0.14,0.2,0.18,0.24c0.04,0.04,0.06,0.16,0.06,0.36c0,0.04-0.13,0.27-0.39,0.69
		c-0.26,0.42-0.55,0.87-0.87,1.35c-0.32,0.48-0.63,0.94-0.93,1.38c-0.3,0.44-0.47,0.7-0.51,0.78v1.14c0.08-0.04,0.23-0.11,0.45-0.21
		c0.22-0.1,0.47-0.2,0.75-0.3c0.28-0.1,0.54-0.2,0.78-0.3c0.24-0.1,0.42-0.17,0.54-0.21c0.12-0.04,0.3-0.13,0.54-0.27
		c0.24-0.14,0.48-0.29,0.72-0.45c0.24-0.16,0.47-0.31,0.69-0.45c0.22-0.14,0.37-0.25,0.45-0.33c0.24-0.12,0.47-0.24,0.69-0.36
		c0.22-0.12,0.41-0.22,0.57-0.3c0.32-0.08,0.52-0.21,0.6-0.39c0.08-0.18,0.28-0.37,0.6-0.57c0.32-0.16,0.78-0.44,1.38-0.84
		c0.32-0.2,0.66-0.44,1.02-0.72c0.28,0,0.46,0.05,0.54,0.15c0.08,0.1,0.16,0.23,0.24,0.39c-0.12,0.44-0.27,0.83-0.45,1.17
		c-0.18,0.34-0.37,0.66-0.57,0.96c-0.2,0.3-0.37,0.58-0.51,0.84c-0.14,0.26-0.21,0.55-0.21,0.87l0.06,0.18l-0.06,0.78
		c0.28,0.04,0.48,0.08,0.6,0.12c0.12,0.04,0.23,0.07,0.33,0.09c0.1,0.02,0.22,0.04,0.36,0.06c0.14,0.02,0.33,0.03,0.57,0.03
		c0.32,0,0.58-0.04,0.78-0.12c0.2-0.08,0.54-0.16,1.02-0.24c0.08,0,0.17-0.02,0.27-0.06c0.1-0.04,0.19-0.08,0.27-0.12l0.06,1.26
		l-4.44,0.54l-1.86-1.86l0.24-0.06l0.3-1.92c-0.76,0.52-1.43,0.94-2.01,1.26c-0.58,0.32-1.14,0.61-1.68,0.87
		c-0.54,0.26-1.12,0.53-1.74,0.81c-0.62,0.28-1.37,0.64-2.25,1.08c-0.2-0.24-0.48-0.51-0.84-0.81c-0.36-0.3-0.54-0.61-0.54-0.93
		v-0.18c0-0.4,0.11-0.84,0.33-1.32c0.22-0.48,0.43-0.88,0.63-1.2c-0.12,0-0.36,0.1-0.72,0.3c-0.36,0.2-0.76,0.42-1.2,0.66
		c-0.44,0.24-0.85,0.48-1.23,0.72c-0.38,0.24-0.65,0.4-0.81,0.48c-0.4,0.24-0.71,0.44-0.93,0.6c-0.22,0.16-0.55,0.34-0.99,0.54
		c-0.4,0.2-0.81,0.36-1.23,0.48c-0.42,0.12-0.79,0.28-1.11,0.48c-0.68-0.6-0.94-1.19-0.78-1.77c0.16-0.58,0.46-1.15,0.9-1.71
		c0.44-0.56,0.86-1.1,1.26-1.62c0.4-0.52,0.5-1,0.3-1.44c-1.2,0.8-2.3,1.49-3.3,2.07c-1,0.58-2.04,1.15-3.12,1.71L116.4,47.28z"/>
	<path d="M153.66,48.54c-0.92,0.64-1.9,1.19-2.94,1.65c-1.04,0.46-2.06,0.69-3.06,0.69c-0.6,0.44-1.21,0.49-1.83,0.15
		c-0.62-0.34-1.15-0.85-1.59-1.53h-0.06l-0.06-1.98c0.04,0,0.06-0.01,0.06-0.03c0-0.02,0.02-0.03,0.06-0.03
		c0.2-0.44,0.36-0.79,0.48-1.05c0.12-0.26,0.25-0.5,0.39-0.72c0.14-0.22,0.31-0.46,0.51-0.72c0.2-0.26,0.52-0.61,0.96-1.05
		c0.2-0.2,0.48-0.44,0.84-0.72c0.36-0.28,0.74-0.54,1.14-0.78c0.4-0.24,0.81-0.45,1.23-0.63s0.81-0.27,1.17-0.27
		c0.44,0,0.77,0.08,0.99,0.24c0.22,0.16,0.49,0.28,0.81,0.36c-0.08,0.4-0.24,0.82-0.48,1.26c-0.24,0.44-0.53,0.85-0.87,1.23
		c-0.34,0.38-0.71,0.7-1.11,0.96c-0.4,0.26-0.8,0.41-1.2,0.45l0.24,0.36c-0.56,0.08-0.96,0.24-1.2,0.48
		c-0.24,0.24-0.56,0.48-0.96,0.72c-0.4,0.24-0.65,0.39-0.75,0.45c-0.1,0.06-0.14,0.12-0.12,0.18c0.02,0.06,0.05,0.14,0.09,0.24
		c0.04,0.1,0,0.31-0.12,0.63c0.2,0.08,0.42,0.18,0.66,0.3c0.24,0.12,0.42,0.18,0.54,0.18l2.04-0.3l0.42-0.6
		c0.44,0,0.99-0.15,1.65-0.45c0.66-0.3,1.33-0.67,2.01-1.11L153.66,48.54z M147.06,46.26c0.16-0.12,0.44-0.31,0.84-0.57
		c0.4-0.26,0.81-0.55,1.23-0.87c0.42-0.32,0.8-0.62,1.14-0.9c0.34-0.28,0.51-0.48,0.51-0.6c0-0.2,0-0.32,0-0.36
		c0-0.04,0-0.05,0-0.03c0,0.02-0.02,0.02-0.06,0c-0.04-0.02-0.1-0.09-0.18-0.21c-0.28,0.2-0.61,0.41-0.99,0.63
		c-0.38,0.22-0.75,0.48-1.11,0.78c-0.36,0.3-0.67,0.62-0.93,0.96C147.25,45.43,147.1,45.82,147.06,46.26z"/>
</g>
</svg>
